<svg id="Capa_1" enable-background="new 0 0 512 512" height="512" viewBox="0 0 512 512" width="512" xmlns="http://www.w3.org/2000/svg"><g><g><g><circle cx="256" cy="250.15" fill="#ff993a" r="226.987"/><path d="m481.992 271.314-120.025-21.164 120.026-21.164c-1.152-12.395-3.296-24.506-6.367-36.247l-120.049 21.168 105.531-60.928c-5.3-11.142-11.484-21.783-18.457-31.839l-105.476 60.896 78.269-93.277c-8.728-8.624-18.142-16.556-28.166-23.686l-78.295 93.308 41.678-114.511c-11.075-5.102-22.628-9.335-34.571-12.618l-41.69 114.542v-121.882c-6.071-.489-12.206-.749-18.401-.749s-12.33.26-18.401.749v121.882l-41.69-114.542c-11.944 3.283-23.496 7.515-34.571 12.618l41.679 114.511-78.295-93.308c-10.024 7.131-19.437 15.062-28.166 23.686l78.269 93.277-105.475-60.896c-6.973 10.057-13.157 20.697-18.457 31.839l105.531 60.928-120.048-21.167c-3.072 11.741-5.216 23.852-6.367 36.247l120.026 21.164-120.026 21.163c1.152 12.395 3.295 24.506 6.367 36.247l120.049-21.168-105.531 60.928c5.3 11.142 11.484 21.783 18.457 31.839l105.476-60.896-78.269 93.277c8.728 8.624 18.142 16.556 28.166 23.686l78.295-93.308-41.679 114.511c11.075 5.102 22.628 9.335 34.571 12.618l41.69-114.542v121.882c6.071.489 12.206.749 18.401.749s12.33-.26 18.401-.749v-121.881l41.69 114.542c11.944-3.283 23.497-7.515 34.571-12.618l-41.68-114.511 78.295 93.308c10.023-7.131 19.437-15.062 28.166-23.686l-78.269-93.277 105.476 60.896c6.973-10.057 13.157-20.697 18.457-31.839l-105.531-60.928 120.049 21.168c3.071-11.743 5.215-23.853 6.366-36.248z" fill="#f97c15"/><g><circle cx="256" cy="250.15" fill="#ffe059" r="192.718"/><path d="m448.717 250.15c0 106.262-86.455 192.717-192.717 192.717-44.56 0-85.641-15.199-118.318-40.696 25.556 13.395 54.615 20.971 85.419 20.971 101.817 0 184.652-82.836 184.652-184.664 0-89.295-63.715-163.984-148.064-181.01 104.563 1.967 189.028 87.654 189.028 192.682z" fill="#ffc751"/><circle cx="256" cy="250.15" fill="#ff993a" r="134.53"/><path d="m390.526 250.148c0 74.299-60.227 134.526-134.526 134.526-42.812 0-80.954-19.996-105.591-51.169 20.921 15.997 47.065 25.503 75.448 25.503 68.703 0 124.393-55.691 124.393-124.393 0-55.84-36.799-103.099-87.475-118.812 71.15 3.521 127.751 62.315 127.751 134.345z" fill="#f97c15"/><g><path d="m273.489 238.481h-5.821v-30.825h27.125c6.445 0 11.669-5.225 11.669-11.669s-5.224-11.669-11.669-11.669h-27.125v-8.497c0-6.444-5.224-11.669-11.669-11.669s-11.669 5.225-11.669 11.669v8.497h-5.818c-21.366 0-38.751 17.383-38.751 38.751 0 21.366 17.385 38.75 38.751 38.75h5.818v30.824h-27.123c-6.445 0-11.669 5.225-11.669 11.669s5.224 11.669 11.669 11.669h27.123v8.499c0 6.444 5.224 11.669 11.669 11.669s11.669-5.225 11.669-11.669v-8.499h5.821c21.366 0 38.748-17.383 38.748-38.75s-17.381-38.75-38.748-38.75zm-34.976 0c-8.499 0-15.413-6.913-15.413-15.412s6.915-15.413 15.413-15.413h5.818v30.825zm34.976 54.162h-5.821v-30.824h5.821c8.499 0 15.411 6.913 15.411 15.412s-6.912 15.412-15.411 15.412z" fill="#ffe059"/><path d="m244.331 315.98h23.337v8.499h-23.337z" fill="#ffc751"/><g><path d="m244.331 261.819h23.337v30.824h-23.337z" fill="#ffc751"/><path d="m244.331 261.819h23.337v14.352h-23.337z" fill="#ffaf40"/><path d="m244.331 207.656h23.337v18.58h-23.337z" fill="#ffc751"/></g><path d="m238.513 238.481c-5.895 0-11.02-3.329-13.606-8.205-2.005-3.779-5.962-6.108-10.24-6.108-8.615 0-14.479 9.128-10.498 16.768 6.46 12.397 19.421 20.883 34.344 20.883h34.977c5.801 0 10.862 3.221 13.491 7.968 2.026 3.658 5.921 5.881 10.103 5.881 8.965 0 14.516-9.675 10.103-17.478-6.648-11.755-19.251-19.708-33.697-19.708h-34.977z" fill="#fff370"/></g><path d="m244.331 175.821h23.337v8.497h-23.337z" fill="#ffc751"/><path d="m157.983 301.356c9.967-4.515 14.861-15.683 11.806-26.19-2.309-7.944-3.548-16.338-3.548-25.017 0-35.983 21.284-67.067 51.921-81.362 9.638-4.497 14.477-15.44 11.72-25.712l-.111-.415c-3.549-13.223-18.175-20.266-30.582-14.478-45.903 21.414-77.715 67.971-77.715 121.967 0 12.873 1.808 25.323 5.184 37.11 3.781 13.202 18.407 19.951 30.916 14.282.136-.062.272-.124.409-.185z" fill="#ffaf40"/><path d="m169.173 227.411c4.342-16.565 13.312-31.271 25.441-42.654 8.327-7.816 9.31-20.693 2.317-29.722l-.276-.356c-7.938-10.249-23.038-11.649-32.507-2.796-18.258 17.07-31.754 39.166-38.282 64.086-3.51 13.401 5.858 26.729 19.666 27.837.149.012.298.024.446.036 10.69.858 20.476-6.057 23.195-16.431z" fill="#ffc751"/></g></g><path d="m109.833 250.15c0-60.685 37.169-112.842 89.937-134.913 11.121-4.652 16.636-17.224 12.731-28.629l-.151-.441c-4.334-12.658-18.484-18.924-30.817-13.738-69.394 29.18-118.25 97.847-118.25 177.722 0 46.117 16.291 88.495 43.414 121.698 8.613 10.544 24.471 11.306 34.098 1.679.11-.11.219-.219.329-.329 8.33-8.33 9.067-21.633 1.616-30.758-20.56-25.183-32.907-57.319-32.907-92.291z" fill="#fff370"/><path d="m93.621 282.786c10.292-3.004 17.175-12.723 16.501-23.423-.192-3.047-.289-6.119-.289-9.213 0-47.875 23.138-90.434 58.815-117.107 8.829-6.601 11.769-18.492 6.801-28.334-.07-.139-.14-.277-.21-.416-6.544-12.975-23.257-16.927-34.871-8.191-46.777 35.187-77.085 91.139-77.085 154.048 0 3.973.122 7.918.361 11.832.909 14.858 15.239 25.107 29.528 20.935z" fill="#fff7c7"/></g><g><g><g><g><g><g><path d="m510.819 26.307c1.574-1.037 1.574-3.34 0-4.377-4.063-2.676-7.92-5.791-11.501-9.345s-6.719-7.381-9.416-11.413c-1.045-1.562-3.365-1.562-4.41 0-2.697 4.032-5.835 7.859-9.416 11.413s-7.438 6.668-11.501 9.345c-1.574 1.037-1.574 3.34 0 4.377 4.063 2.676 7.92 5.791 11.501 9.345s6.719 7.381 9.416 11.413c1.045 1.562 3.365 1.562 4.41 0 2.697-4.032 5.835-7.859 9.416-11.413 3.582-3.555 7.438-6.669 11.501-9.345z" fill="#ffe059"/></g></g><g><g><path d="m510.82 26.305c-4.062 2.677-7.918 5.79-11.501 9.345s-6.72 7.382-9.417 11.414c-1.046 1.56-3.363 1.56-4.409 0-2.697-4.032-5.834-7.858-9.417-11.414-.466-.463-.939-.919-1.419-1.368.633.053 1.272.079 1.918.079 12.294 0 22.317-9.689 22.73-21.79.007.007.007.007.013.013 3.583 3.556 7.439 6.669 11.501 9.345 1.573 1.038 1.573 3.338.001 4.376z" fill="#ffc751"/></g></g></g><path d="m488.387 73.442-11.799-3.658c-17.037-5.282-30.377-18.622-35.659-35.659l-3.658-11.799c-.357-1.152-1.422-1.937-2.628-1.937-1.206 0-2.271.785-2.628 1.937l-3.658 11.799c-5.282 17.037-18.622 30.377-35.659 35.659l-11.798 3.658c-1.152.357-1.937 1.422-1.937 2.628 0 1.206.785 2.271 1.937 2.628l11.799 3.658c17.037 5.282 30.377 18.622 35.659 35.659l3.658 11.799c.357 1.152 1.422 1.937 2.628 1.937 1.206 0 2.271-.785 2.628-1.937l3.658-11.799c5.282-17.037 18.622-30.377 35.659-35.659l11.799-3.658c1.152-.357 1.937-1.422 1.937-2.628-.001-1.206-.786-2.271-1.938-2.628z" fill="#ffe059"/><path d="m490.32 76.065c0 1.207-.783 2.273-1.939 2.632l-11.787 3.659c-17.039 5.277-30.38 18.619-35.658 35.658l-3.659 11.8c-.36 1.156-1.425 1.939-2.632 1.939s-2.273-.783-2.632-1.939l-3.659-11.8c-1.785-5.778-4.507-11.133-8-15.896 18.554-3.3 32.627-19.517 32.627-39.009 0-3.249-.385-6.407-1.13-9.438 6.497 7.447 15.01 13.097 24.743 16.115l11.787 3.659c1.156.36 1.939 1.413 1.939 2.62z" fill="#ffc751"/></g></g><g><g><g><g><g><path d="m126.856 411.553c1.574-1.037 1.574-3.34 0-4.377-4.063-2.677-7.92-5.791-11.501-9.345s-6.719-7.381-9.416-11.413c-1.045-1.562-3.365-1.562-4.41 0-2.697 4.032-5.835 7.859-9.416 11.413s-7.438 6.668-11.501 9.345c-1.574 1.037-1.574 3.34 0 4.377 4.063 2.677 7.92 5.791 11.501 9.345s6.719 7.381 9.416 11.413c1.045 1.562 3.365 1.562 4.41 0 2.697-4.032 5.835-7.859 9.416-11.413s7.438-6.668 11.501-9.345z" fill="#ffe059"/></g></g><g><g><path d="m126.857 411.551c-4.062 2.677-7.918 5.79-11.501 9.345-3.583 3.556-6.72 7.382-9.417 11.414-1.046 1.56-3.363 1.56-4.409 0-2.697-4.031-5.834-7.858-9.417-11.414-.466-.463-.939-.919-1.419-1.368.633.053 1.272.079 1.918.079 12.294 0 22.317-9.689 22.73-21.79l.013.013c3.583 3.556 7.439 6.669 11.501 9.345 1.573 1.039 1.573 3.339.001 4.376z" fill="#ffc751"/></g></g></g><path d="m109.424 453.688-11.799-3.658c-17.037-5.282-30.377-18.622-35.659-35.659l-3.658-11.799c-.357-1.152-1.422-1.937-2.628-1.937-1.206 0-2.271.785-2.628 1.937l-3.658 11.799c-5.282 17.037-18.622 30.377-35.659 35.659l-11.799 3.658c-1.151.357-1.936 1.422-1.936 2.628 0 1.206.785 2.271 1.937 2.628l11.799 3.658c17.037 5.282 30.377 18.622 35.659 35.659l3.658 11.799c.357 1.152 1.422 1.937 2.628 1.937 1.206 0 2.271-.785 2.628-1.937l3.658-11.799c5.282-17.037 18.622-30.377 35.659-35.659l11.799-3.658c1.152-.357 1.937-1.422 1.937-2.628-.002-1.206-.787-2.271-1.938-2.628z" fill="#ffe059"/><path d="m111.357 456.311c0 1.207-.783 2.273-1.939 2.632l-11.787 3.659c-17.039 5.277-30.38 18.619-35.658 35.658l-3.659 11.8c-.36 1.156-1.425 1.939-2.632 1.939s-2.273-.783-2.632-1.939l-3.659-11.8c-1.785-5.778-4.507-11.133-8-15.896 18.554-3.3 32.627-19.517 32.627-39.009 0-3.249-.385-6.407-1.13-9.438 6.497 7.447 15.01 13.097 24.743 16.115l11.787 3.659c1.155.36 1.939 1.413 1.939 2.62z" fill="#ffc751"/></g></g></g></g></svg>